<svg width="0" height="0" class="hidden">
  <symbol viewBox="0 0 21 15" fill="none" xmlns="http://www.w3.org/2000/svg" id="01">
    <path d="M20.001 2.004c-.54-.96-1.125-1.137-2.318-1.204C16.49.72 13.495.686 10.899.686c-2.6 0-5.598.033-6.788.113-1.19.068-1.778.244-2.323 1.205-.556.959-.842 2.61-.842 5.519v.01c0 2.895.286 4.56.842 5.508.545.96 1.131 1.135 2.321 1.216 1.192.07 4.19.11 6.79.11 2.596 0 5.592-.04 6.785-.109 1.193-.08 1.779-.255 2.319-1.215.56-.95.844-2.613.844-5.509v-.01c0-2.91-.284-4.561-.846-5.52zM8.41 11.258V3.795l6.22 3.732-6.22 3.73z" fill="#ffffff"></path>
  </symbol>
  <symbol viewBox="0 0 21 13" fill="none" xmlns="http://www.w3.org/2000/svg" id="02">
    <path d="M20.177 10.977c-.053-.09-.384-.809-1.976-2.286-1.667-1.548-1.443-1.297.565-3.972 1.222-1.63 1.711-2.625 1.558-3.05-.145-.406-1.045-.299-1.045-.299l-2.99.018s-.221-.03-.387.068c-.16.097-.263.321-.263.321s-.474 1.261-1.106 2.334c-1.332 2.262-1.866 2.382-2.084 2.241-.506-.327-.38-1.316-.38-2.018 0-2.193.333-3.107-.647-3.343-.326-.078-.565-.13-1.397-.14-1.067-.01-1.972.004-2.483.254-.34.167-.603.539-.443.56.198.026.646.12.883.444.308.417.296 1.355.296 1.355s.177 2.58-.411 2.902c-.405.22-.958-.23-2.146-2.283A19.142 19.142 0 0 1 4.653 1.87s-.089-.216-.247-.332c-.191-.14-.46-.185-.46-.185l-2.844.017s-.426.012-.583.198c-.14.165-.011.506-.011.506s2.226 5.208 4.747 7.834c2.312 2.407 4.936 2.249 4.936 2.249h1.19s.36-.04.542-.238c.17-.181.163-.522.163-.522s-.024-1.596.718-1.831c.73-.231 1.668 1.542 2.662 2.225.75.517 1.322.403 1.322.403l2.658-.037s1.39-.086.731-1.18z" fill="#ffffff"></path>
  </symbol>
  <symbol viewBox="0 0 18 17" fill="none" xmlns="http://www.w3.org/2000/svg" id="03">
    <path d="M12.506.13H6.21A5.248 5.248 0 0 0 .962 5.379v6.297a5.248 5.248 0 0 0 5.248 5.247h6.296a5.248 5.248 0 0 0 5.248-5.247V5.378A5.248 5.248 0 0 0 12.506.131zm3.674 11.545a3.677 3.677 0 0 1-3.674 3.673H6.21a3.677 3.677 0 0 1-3.673-3.673V5.378A3.677 3.677 0 0 1 6.21 1.705h6.296a3.677 3.677 0 0 1 3.674 3.673v6.297z" fill="#ffffff"></path>
    <path d="M9.358 4.329a4.198 4.198 0 1 0 0 8.396 4.198 4.198 0 0 0 0-8.396zm0 6.821a2.627 2.627 0 0 1-2.624-2.623 2.627 2.627 0 0 1 2.624-2.624 2.627 2.627 0 0 1 2.624 2.624 2.627 2.627 0 0 1-2.624 2.623zm4.512-6.577a.56.56 0 1 0 0-1.118.56.56 0 0 0 0 1.118z" fill="#ffffff"></path>
  </symbol>
  <symbol viewBox="0 0 24 19" fill="none" xmlns="http://www.w3.org/2000/svg" id="04">
    <path d="M1.3 8.96c2.257-1.243 4.776-2.28 7.13-3.323C12.479 3.93 16.544 2.251 20.65.69c.799-.266 2.234-.527 2.375.657-.077 1.676-.394 3.342-.612 5.008-.552 3.664-1.19 7.315-1.812 10.966-.214 1.217-1.738 1.846-2.713 1.068-2.343-1.583-4.704-3.15-7.017-4.77-.758-.77-.055-1.875.621-2.425 1.93-1.901 3.977-3.517 5.806-5.517.493-1.192-.965-.188-1.445.12-2.642 1.82-5.22 3.752-8.005 5.352-1.423.784-3.08.114-4.503-.323C2.07 10.297.201 9.765 1.301 8.96z" fill="#fff"></path>
  </symbol>
</svg>