<svg width="26" height="26" viewBox="0 0 26 26" fill="none" xmlns="http://www.w3.org/2000/svg">
<path fill-rule="evenodd" clip-rule="evenodd" d="M12.627 25.254C19.6007 25.254 25.254 19.6007 25.254 12.627C25.254 5.65329 19.6007 0 12.627 0C5.6533 0 0 5.65329 0 12.627C0 19.6007 5.6533 25.254 12.627 25.254ZM16.14 6.83517H11.6412L10.9581 14.0332H13.9573L16.14 6.83517ZM10.3083 18.1321C10.697 18.4876 11.1969 18.6653 11.8078 18.6653C12.4632 18.6653 13.0131 18.4598 13.4574 18.0488C13.9017 17.6267 14.1239 17.1102 14.1239 16.4992C14.1239 15.9883 13.9295 15.5606 13.5407 15.2163C13.1519 14.8719 12.6521 14.6997 12.0411 14.6997C11.3746 14.6997 10.8192 14.8997 10.3749 15.2996C9.94168 15.6995 9.72508 16.2104 9.72508 16.8325C9.72508 17.3435 9.91947 17.7767 10.3083 18.1321Z" fill="white"/>
</svg>
