<svg width="162" height="35" viewBox="0 0 162 35" fill="none" xmlns="http://www.w3.org/2000/svg">
<g clip-path="url(#clip0)">
<path d="M12.1049 15.3384L12.8925 18.9964H18.6134L20.5618 15.5878L18.9865 24.5249H26.6142L30.8427 0.33252H22.8418L17.2453 9.97621L15.0482 0.33252H7.13025L2.86035 24.5249H10.4881L12.1049 15.3384Z" fill="white"/>
<path d="M51.1143 24.5249H52.1092H54.555H60.5661L64.9189 18.9964L67.8622 24.5249H75.9874L69.6862 12.8028L79.5526 0.33252H70.1008L65.9138 5.65318L63.1363 0.33252H55.0111L61.105 11.8052L54.0161 20.8254L51.1143 24.5249Z" fill="white"/>
<path d="M36.3977 24.5248L38.7607 18.9963H42.5746L43.0306 24.5248H48.3369H50.7827L50.2438 20.8669L47.1761 0.374023H40.5433L28.5212 24.5248H36.3977ZM40.5018 14.6317L42.0771 11.0153L42.3259 14.6317H40.5018Z" fill="white"/>
<path d="M85.7709 27.1853L88.8386 9.85156H81.2523L76.9824 33.9608H94.1449L95.3471 27.1853H85.7709Z" fill="#009A17"/>
<path d="M101.026 9.81006L96.7566 33.9193H104.384L108.654 9.81006H101.026Z" fill="#009A17"/>
<path d="M124.283 9.81006L122.5 20.0357L117.028 9.81006H111.224L106.955 33.9193H114.582L116.365 23.7768L121.754 33.9193H127.641L131.911 9.81006H124.283Z" fill="#009A17"/>
<path d="M149.861 16.6271L151.022 9.85156H134.481L130.211 33.9608H146.793L147.954 27.1853H139L139.373 24.899H145.757L146.918 18.4976H140.534L140.824 16.6271H149.861Z" fill="#009A17"/>
<path d="M2.36295 27.1853L0 33.9608H74.3293L75.5315 27.1853H2.36295Z" fill="#009A17"/>
<path d="M81.7085 7.1913L82.9107 0.415771H154.131L151.519 7.1913H81.7085Z" fill="white"/>
<path d="M159.147 1.28857C159.478 1.28857 159.81 1.37171 160.142 1.49641C160.432 1.62112 160.681 1.78739 160.971 2.03679C161.22 2.2862 161.385 2.5356 161.51 2.86814C161.634 3.15912 161.717 3.49166 161.717 3.86577C161.717 4.32301 161.634 4.73869 161.385 5.1128C161.137 5.48691 160.847 5.81945 160.473 6.02729C160.059 6.27669 159.644 6.35983 159.23 6.35983C158.774 6.35983 158.359 6.27669 157.986 6.02729C157.572 5.77788 157.281 5.48691 157.074 5.1128C156.825 4.73869 156.742 4.28144 156.742 3.86577C156.742 3.45009 156.825 2.99285 157.074 2.61874C157.323 2.24463 157.613 1.91209 157.986 1.70425C158.276 1.37171 158.691 1.28857 159.147 1.28857ZM159.147 1.78739C158.774 1.78739 158.442 1.87052 158.11 2.03679C157.82 2.20306 157.572 2.45247 157.406 2.74344C157.198 3.03442 157.157 3.40852 157.157 3.74107C157.157 4.07361 157.24 4.44771 157.406 4.73869C157.613 5.02966 157.82 5.27907 158.152 5.44534C158.442 5.61161 158.815 5.69474 159.188 5.69474C159.561 5.69474 159.893 5.61161 160.225 5.44534C160.515 5.27907 160.764 5.02966 160.929 4.73869C161.095 4.44771 161.178 4.07361 161.178 3.74107C161.178 3.40852 161.095 3.03442 160.929 2.74344C160.764 2.45247 160.515 2.20306 160.225 2.03679C159.852 1.87052 159.52 1.78739 159.147 1.78739ZM158.566 5.1128H158.028V2.45247H159.271C159.478 2.45247 159.644 2.49404 159.769 2.5356C159.893 2.61874 160.017 2.70187 160.059 2.78501C160.142 2.86814 160.142 3.03442 160.142 3.15912C160.142 3.36696 160.059 3.53323 159.934 3.65793C159.81 3.78263 159.644 3.90734 159.396 3.90734C159.52 3.9489 159.603 3.99047 159.686 4.11517C159.769 4.19831 159.852 4.36458 159.976 4.53085L160.308 5.07123H159.644L159.396 4.65555C159.313 4.44772 159.188 4.32301 159.147 4.23988C159.064 4.15674 159.022 4.07361 158.898 4.03204C158.815 3.99047 158.732 3.9489 158.649 3.9489H158.525V5.1128H158.566ZM158.566 2.90971V3.61636H158.981C159.188 3.61636 159.354 3.57479 159.437 3.53323C159.52 3.45009 159.603 3.36696 159.603 3.24225C159.603 3.15912 159.561 3.03442 159.478 2.99285C159.396 2.90971 159.23 2.90971 159.064 2.90971H158.566Z" fill="white"/>
</g>
<defs>
<clipPath id="clip0">
<rect width="161.676" height="34.0855" fill="white"/>
</clipPath>
</defs>
</svg>
